<?xml version="1.0" encoding="utf-8"?>
<!-- Generator: Adobe Illustrator 23.0.3, SVG Export Plug-In . SVG Version: 6.00 Build 0)  -->
<svg version="1.1" id="Capa_1" xmlns="http://www.w3.org/2000/svg" xmlns:xlink="http://www.w3.org/1999/xlink" x="0px" y="0px"
	 viewBox="0 0 365.6 144.1" style="enable-background:new 0 0 365.6 144.1;" xml:space="preserve">
<style type="text/css">
	.st0{fill:#00BAB1;}
	.st1{fill:#8000FF;}
	.st2{fill:#FFB300;}
	.st3{fill:#FF003D;}
</style>
<path class="st0" d="M132.8,84.2l-0.2-0.7l-5.4-21.2l-0.8,0.2l0,0l-13.2,3.4l-0.7,0.2l-21.2,5.4l3.4,13.2l11.9-3
	c-1.5,4.3-4.1,8.1-8.1,11.5c-5.5,4.7-11.7,7-18.6,7c-8.1,0-15.7-3.1-22.6-9.4C49.7,84.1,46,75.5,46,65.1c0-10.1,3.3-18.4,10-25.1
	c6.7-6.8,14.9-10.2,24.8-10.2c11,0,20.3,5.1,27.9,15.3l10-9.6C113,28.8,107,24,101,21c-6.3-3-13.1-4.5-20.4-4.5
	c-13.6,0-25.1,4.7-34.5,14.2c-9.5,9.4-14.2,20.9-14.2,34.4c0,13.2,4.6,24.6,13.9,34c9.3,9.4,20.5,14.1,33.5,14.1
	c13.4,0,24.4-4.9,33-14.6c3.1-3.5,5.5-7.3,7.1-11.3l0.1,0.6l3.3,12.8l13.2-3.4L132.8,84.2z"/>
<path class="st1" d="M139.8,76.9c0-8.9,3.2-16.4,9.5-22.7c6.4-6.2,14.1-9.3,23.2-9.3c9.2,0,17,3.1,23.4,9.4c6.3,6.3,9.5,14,9.5,23.1
	c0,9.2-3.2,17-9.5,23.2c-6.4,6.2-14.3,9.3-23.6,9.3c-9.2,0-17-3.2-23.2-9.5C142.9,94.2,139.8,86.4,139.8,76.9z"/>
<path class="st2" d="M205.7,104.3c0-1.5,0.5-2.8,1.6-3.8c1.1-1.1,2.4-1.6,3.9-1.6c1.6,0,2.9,0.5,4,1.6c1.1,1.1,1.6,2.4,1.6,3.9
	c0,1.6-0.5,2.9-1.6,3.9c-1.1,1-2.4,1.6-4,1.6c-1.6,0-2.9-0.5-3.9-1.6C206.2,107.3,205.7,105.9,205.7,104.3z"/>
<g>
	<path class="st3" d="M231.9,44.9v36.3c0,10.5,4.1,15.7,12.4,15.7c8.3,0,12.4-5.2,12.4-15.7V44.9h14.6v36.6c0,5.1-0.6,9.4-1.9,13.1
		c-1.2,3.3-3.3,6.2-6.3,8.9c-4.9,4.3-11.2,6.4-18.8,6.4c-7.6,0-13.8-2.1-18.7-6.4c-3-2.6-5.2-5.6-6.4-8.9c-1.2-2.9-1.8-7.3-1.8-13.1
		V44.9H231.9z"/>
</g>
<path class="st2" d="M305.7,58.5v49.6h-14.6V58.5h-6.2V44.9h6.2V21.8h14.6v23.2h11.4v13.6H305.7z"/>
</svg>
