<svg width="74" height="65" viewBox="0 0 74 65" fill="none" xmlns="http://www.w3.org/2000/svg">
<path d="M14.6051 29.5365C14.6051 21.4739 17.4959 14.5898 23.2159 8.94601C28.9359 3.30224 35.9475 0.449341 44.1277 0.449341C52.3694 0.449341 59.381 3.30224 65.1625 9.00803C70.821 14.7138 73.7118 21.722 73.7118 30.0326C73.7118 38.4053 70.821 45.4135 65.101 51.0572C59.3195 56.701 52.2464 59.4919 43.8817 59.4919C35.5784 59.4919 28.6283 56.639 23.0313 50.8712C17.4343 45.2274 14.6051 38.0952 14.6051 29.5365Z" fill="#8000FF"/>
<path d="M62.3334 46.902L62.2104 46.4678L58.8891 33.3197L58.3971 33.4437L50.2784 35.5524L49.8478 35.6764L36.8087 39.0255L38.8999 47.2121L46.219 45.3515C45.2964 48.0183 43.6973 50.3751 41.2371 52.4837C37.8543 55.3986 34.0409 56.8251 29.7971 56.8251C24.8151 56.8251 20.1407 54.9025 15.8968 50.9953C11.3454 46.84 9.00824 41.5063 9.00824 35.1183C9.00824 28.8543 11.0379 23.7067 15.1588 19.5514C19.2796 15.3341 24.3231 13.2254 30.4121 13.2254C37.1777 13.2254 42.8977 16.3884 47.5721 22.7144L53.7227 16.7605C50.1553 12.6052 46.465 9.62827 42.7747 7.76768C38.8999 5.9071 34.7175 4.97681 30.2276 4.97681C21.8629 4.97681 14.7897 7.89172 9.00824 13.7836C3.16523 19.6134 0.274475 26.7456 0.274475 35.1183C0.274475 43.3048 3.10372 50.3751 8.82372 56.2049C14.5437 62.0347 21.4323 64.9496 29.428 64.9496C37.6698 64.9496 44.4353 61.9107 49.7248 55.8948C51.6315 53.7241 53.1076 51.3674 54.0917 48.8866L54.1532 49.2587L56.1829 57.1972" fill="#00BAB1"/>
<path d="M62.3333 46.9021L63.6864 52.3598C61.4107 54.3444 58.889 55.8949 56.1828 57.0733L54.2146 49.2588L54.1531 48.8867C53.1075 51.3675 51.6929 53.6622 49.7862 55.8949C48.6176 57.1973 47.3875 58.3757 46.0959 59.43C45.3578 59.492 44.6813 59.4921 43.9432 59.4921C39.2688 59.4921 34.9634 58.5618 31.1501 56.7632C34.9019 56.5151 38.2232 55.0887 41.2985 52.4838C43.6972 50.3752 45.3578 48.0184 46.2804 45.3516L38.9613 47.2122L36.8701 39.0256L49.9092 35.6766L50.3398 35.5525L58.4585 33.4439L58.9505 33.3198L62.2718 46.468L62.3333 46.9021Z" fill="#212B36"/>
<path d="M53.7226 16.6985L47.572 22.6524C42.8361 16.3264 37.1161 13.1634 30.412 13.1634C25.2456 13.1634 20.7557 14.7139 17.0038 17.8148C18.4185 14.5898 20.5097 11.6129 23.2159 8.94605C24.7535 7.45758 26.3527 6.15518 28.0133 5.03883C28.7514 4.97681 29.4894 4.97681 30.2275 4.97681C34.7174 4.97681 38.8998 5.9071 42.7746 7.76768C46.5264 9.56625 50.1552 12.6052 53.7226 16.6985Z" fill="#212B36"/>
<g filter="url(#filter0_i)">
<path d="M62.3333 46.9021L63.6864 52.3598C61.4107 54.3444 58.889 55.8949 56.1828 57.0733L54.2146 49.2588L54.1531 48.8867C53.1075 51.3675 51.6929 53.6622 49.7862 55.8949C48.6176 57.1973 47.3875 58.3757 46.0959 59.43C45.3578 59.492 44.6813 59.4921 43.9432 59.4921C39.2688 59.4921 34.9634 58.5618 31.1501 56.7632C34.9019 56.5151 38.2232 55.0887 41.2985 52.4838C43.6972 50.3752 45.3578 48.0184 46.2804 45.3516L38.9613 47.2122L36.8701 39.0256L49.9092 35.6766L50.3398 35.5525L58.4585 33.4439L58.9505 33.3198L62.2718 46.468L62.3333 46.9021Z" fill="#EEEEEE"/>
<path d="M53.7226 16.6985L47.572 22.6524C42.8361 16.3264 37.1161 13.1634 30.412 13.1634C25.2456 13.1634 20.7557 14.7139 17.0038 17.8148C18.4185 14.5898 20.5097 11.6129 23.2159 8.94605C24.7535 7.45758 26.3527 6.15518 28.0133 5.03883C28.7514 4.97681 29.4894 4.97681 30.2275 4.97681C34.7174 4.97681 38.8998 5.9071 42.7746 7.76768C46.5264 9.56625 50.1552 12.6052 53.7226 16.6985Z" fill="#EEEEEE"/>
</g>
<path d="M63.994 59.4299C63.994 58.1275 64.486 57.0112 65.4086 56.0809C66.3312 55.1506 67.4998 54.7164 68.7914 54.7164C70.1445 54.7164 71.2516 55.1506 72.2357 56.0809C73.1583 57.0112 73.6503 58.1275 73.6503 59.4919C73.6503 60.8564 73.1583 61.9727 72.2357 62.903C71.3131 63.8333 70.1445 64.2674 68.7914 64.2674C67.4383 64.2674 66.3312 63.7713 65.4086 62.841C64.486 61.9727 63.994 60.7943 63.994 59.4299Z" fill="#FFB300"/>
<defs>
<filter id="filter0_i" x="15.0038" y="4.97681" width="48.6826" height="56.5152" filterUnits="userSpaceOnUse" color-interpolation-filters="sRGB">
<feFlood flood-opacity="0" result="BackgroundImageFix"/>
<feBlend mode="normal" in="SourceGraphic" in2="BackgroundImageFix" result="shape"/>
<feColorMatrix in="SourceAlpha" type="matrix" values="0 0 0 0 0 0 0 0 0 0 0 0 0 0 0 0 0 0 127 0" result="hardAlpha"/>
<feOffset dx="-2" dy="2"/>
<feGaussianBlur stdDeviation="2.5"/>
<feComposite in2="hardAlpha" operator="arithmetic" k2="-1" k3="1"/>
<feColorMatrix type="matrix" values="0 0 0 0 0 0 0 0 0 0 0 0 0 0 0 0 0 0 0.35 0"/>
<feBlend mode="normal" in2="shape" result="effect1_innerShadow"/>
</filter>
</defs>
</svg>
